<svg xmlns="http://www.w3.org/2000/svg" width="1500" height="400" viewBox="0 0 1500 400">
<g>
<path d="M 86.78 324.05 C80.78,327.36 78.74,327.58 74.50,325.33 C68.52,322.17 68.00,321.24 68.02,313.60 L 68.04 306.50 L 78.12 295.50 C101.89,269.55 118.87,247.34 125.53,233.51 C131.77,220.52 133.54,206.32 130.51,193.50 C128.70,185.88 121.85,172.26 117.05,166.74 C115.01,164.41 112.14,160.70 110.67,158.50 C107.59,153.90 84.72,128.62 74.93,119.00 C66.99,111.19 66.00,109.49 66.00,103.57 C66.00,99.73 66.57,98.37 69.62,95.00 C72.97,91.30 73.62,91.00 78.51,91.00 C83.62,91.00 84.17,91.29 95.98,100.25 C106.98,108.60 114.11,113.74 122.59,119.46 C124.19,120.54 127.16,122.82 129.19,124.51 C132.63,127.38 139.42,131.67 150.80,138.19 C159.94,143.41 180.32,149.00 190.23,149.00 C202.14,149.00 222.21,142.38 235.00,134.24 C249.48,125.02 277.43,104.82 285.38,97.81 C293.83,90.39 294.50,90.00 299.05,90.00 C301.68,90.00 304.57,90.28 305.46,90.62 C308.12,91.64 311.00,98.48 311.00,103.76 C311.00,110.07 308.07,114.57 295.86,127.09 C277.84,145.55 263.64,162.90 256.63,175.00 C249.52,187.27 245.20,201.76 246.44,209.18 C246.84,211.55 247.41,215.07 247.70,217.00 C248.00,218.93 248.56,220.95 248.95,221.50 C249.34,222.05 250.46,224.67 251.44,227.32 C253.73,233.52 262.44,249.34 266.40,254.50 C268.09,256.70 271.73,260.98 274.49,264.00 C277.25,267.02 281.08,271.71 283.01,274.40 C284.93,277.10 289.48,282.50 293.13,286.40 C302.98,296.94 308.38,303.12 310.82,306.65 C316.56,314.96 310.03,327.01 299.80,327.00 C295.85,326.99 293.09,325.38 281.54,316.36 C276.71,312.59 271.27,308.38 269.45,307.00 C267.63,305.62 263.52,302.48 260.32,300.01 C249.49,291.65 222.03,274.00 219.84,274.00 C219.45,274.00 217.86,273.47 216.32,272.83 C205.09,268.16 186.57,266.70 174.36,269.54 C166.04,271.47 155.81,275.61 150.00,279.39 C122.05,297.58 112.10,304.70 95.28,318.50 C93.52,319.95 89.69,322.45 86.78,324.05 ZM 480.76 251.76 L 480.50 306.50 L 454.93 306.77 C440.87,306.91 429.06,306.73 428.68,306.35 C428.31,305.97 428.00,246.34 428.00,173.83 L 428.00 42.00 L 614.03 42.00 L 613.50 91.50 L 547.25 91.76 L 481.00 92.01 L 481.00 148.00 L 579.04 148.00 L 578.77 172.25 L 578.50 196.50 L 529.76 196.76 L 481.02 197.02 ZM 806.49 378.47 C798.48,380.32 774.33,381.32 768.39,380.04 C760.86,378.41 748.59,373.83 740.86,369.76 C732.65,365.43 717.00,353.68 717.00,351.85 C717.00,350.93 729.89,335.38 737.09,327.60 C738.81,325.75 738.97,325.79 744.17,329.19 C758.96,338.85 769.89,343.00 780.56,343.00 C803.33,343.00 816.80,332.24 820.58,311.05 C821.89,303.75 822.49,291.00 821.53,291.00 C821.27,291.00 817.96,293.00 814.18,295.45 C810.39,297.90 804.19,301.14 800.40,302.66 C793.94,305.24 792.52,305.41 778.00,305.46 C763.58,305.50 761.89,305.30 753.78,302.64 C737.22,297.21 725.87,286.87 717.34,269.42 C710.25,254.95 710.07,252.94 710.03,187.75 L 710.00 131.00 L 759.00 131.00 L 759.01 177.75 C759.02,227.32 759.65,238.15 763.00,245.76 C766.25,253.13 773.24,259.60 780.45,261.90 C795.00,266.56 802.00,265.31 812.01,256.25 C814.82,253.71 816.85,252.23 818.30,250.32 C822.06,245.40 822.05,237.60 822.01,201.28 C822.01,197.12 822.00,192.58 822.00,187.63 L 822.00 131.00 L 871.00 131.00 L 871.00 215.37 C871.00,286.89 870.77,301.09 869.46,308.62 C865.93,328.92 860.39,340.17 846.88,354.45 C834.41,367.62 822.36,374.79 806.49,378.47 ZM 1120.00 304.34 C1089.83,309.40 1061.25,304.73 1042.50,291.69 C1033.08,285.14 1020.85,270.70 1015.26,259.50 C1005.19,239.36 1003.34,209.64 1010.79,187.63 C1020.75,158.18 1043.19,138.55 1073.87,132.44 C1085.96,130.03 1111.63,130.87 1121.46,134.00 C1145.39,141.63 1162.51,157.59 1171.88,181.05 C1176.50,192.63 1178.10,203.31 1177.78,220.58 L 1177.50 235.50 L 1056.97 236.02 L 1057.65 238.76 C1058.92,243.82 1062.10,250.05 1065.27,253.66 C1069.50,258.47 1074.49,261.49 1082.57,264.10 C1088.17,265.91 1090.77,266.18 1097.91,265.72 C1102.63,265.41 1108.75,264.62 1111.50,263.96 C1116.30,262.80 1132.61,255.44 1136.25,252.79 C1137.80,251.66 1139.63,253.14 1152.22,265.73 L 1166.44 279.95 L 1162.97 283.58 C1152.99,294.03 1137.84,301.35 1120.00,304.34 ZM 1248.00 250.00 L 1247.50 306.50 L 1223.93 306.77 C1210.97,306.91 1200.06,306.73 1199.68,306.35 C1199.31,305.97 1199.00,267.48 1199.00,220.80 C1199.00,153.77 1199.26,135.86 1200.25,135.58 C1202.76,134.86 1239.62,130.97 1243.75,130.98 L 1248.00 131.00 L 1248.00 138.00 C1248.00,141.85 1248.27,145.00 1248.59,145.00 C1248.92,145.00 1251.76,143.19 1254.92,140.98 C1258.07,138.76 1264.59,135.61 1269.41,133.98 C1277.31,131.29 1279.38,131.00 1290.83,131.01 C1305.46,131.03 1312.84,132.48 1323.59,137.45 C1336.43,143.38 1348.86,157.40 1354.43,172.24 C1358.78,183.82 1359.12,189.89 1358.80,250.00 L 1358.50 306.50 L 1310.50 306.50 L 1309.97 253.00 C1309.50,204.64 1309.27,199.02 1307.63,194.50 C1304.30,185.31 1300.03,180.10 1292.82,176.43 C1286.65,173.28 1275.46,171.53 1270.33,172.91 C1264.46,174.49 1257.56,179.32 1254.26,184.16 C1248.14,193.12 1248.54,188.92 1248.00,250.00 ZM 1482.26 302.27 C1475.85,305.28 1474.80,305.46 1462.00,305.72 C1451.09,305.95 1447.10,305.62 1441.22,304.04 C1420.95,298.57 1406.72,285.47 1399.36,265.50 C1397.70,261.01 1397.47,255.95 1397.01,215.50 L 1396.50 170.50 L 1370.50 169.50 L 1370.50 131.50 L 1396.50 130.50 L 1396.77 106.79 L 1397.04 83.08 L 1400.27 82.59 C1404.13,81.99 1442.97,77.98 1444.73,77.99 C1445.67,78.00 1446.03,84.26 1446.23,104.25 L 1446.50 130.50 L 1459.13 130.78 L 1471.76 131.06 L 1472.38 134.15 C1473.41,139.29 1473.08,165.98 1471.96,168.07 C1471.03,169.82 1469.76,170.00 1458.41,170.00 L 1445.89 170.00 L 1446.50 249.50 L 1449.40 254.74 C1451.68,258.85 1453.38,260.51 1457.35,262.49 C1462.86,265.23 1467.19,265.58 1475.02,263.90 C1477.83,263.30 1480.31,262.98 1480.52,263.19 C1481.73,264.40 1490.18,296.09 1489.66,297.46 C1489.31,298.36 1485.98,300.52 1482.26,302.27 ZM 677.75 174.23 L 677.50 306.50 L 653.73 306.77 C635.25,306.98 629.84,306.75 629.47,305.77 C629.20,305.07 629.10,245.55 629.24,173.50 L 629.50 42.50 L 653.75 42.23 L 678.01 41.96 ZM 938.50 196.42 L 937.50 306.50 L 913.73 306.77 C895.25,306.98 889.84,306.75 889.47,305.77 C889.20,305.07 889.10,266.49 889.24,220.03 L 889.50 135.56 L 908.50 133.36 C918.95,132.15 929.75,131.04 932.50,130.88 L 937.50 130.59 L 938.07 148.86 L 944.62 143.91 C957.86,133.88 966.88,130.99 984.86,131.02 C991.81,131.02 998.06,131.38 998.74,131.82 C999.70,132.43 999.20,137.61 996.50,155.05 C994.58,167.40 992.80,178.06 992.54,178.74 C992.21,179.62 990.99,179.26 988.40,177.49 C984.23,174.67 979.94,173.35 972.00,172.44 C961.18,171.20 949.36,178.36 942.00,190.60 ZM 72.12 166.57 C65.57,169.33 55.01,168.12 45.96,163.57 C38.86,160.01 37.72,159.12 28.44,150.00 C14.65,136.44 10.07,125.36 9.27,103.67 C8.66,86.83 10.12,79.58 16.68,66.80 C20.05,60.25 22.81,56.53 27.87,51.76 C36.65,43.48 46.15,37.35 52.22,36.05 C54.90,35.47 58.54,34.25 60.30,33.34 C64.75,31.04 90.38,31.11 94.89,33.44 C96.55,34.30 98.50,35.00 99.24,35.00 C101.52,35.00 116.22,43.01 121.93,47.36 C126.92,51.17 136.00,61.99 136.00,64.13 C136.00,64.63 137.19,66.83 138.63,69.02 C141.81,73.83 143.07,85.00 140.99,90.02 C139.59,93.40 135.50,96.00 131.58,96.00 C128.17,96.00 122.78,91.05 121.09,86.36 C117.21,75.59 105.76,63.21 95.19,58.36 C88.34,55.21 87.24,55.00 77.19,55.02 C68.68,55.04 65.60,55.45 62.10,57.04 C50.39,62.35 38.72,73.79 34.59,84.00 C30.32,94.54 30.69,110.28 35.44,120.66 C39.75,130.07 45.81,136.24 55.25,140.85 C59.79,143.06 65.44,145.43 67.81,146.11 C72.35,147.43 75.36,150.61 76.56,155.37 C77.37,158.60 74.63,165.51 72.12,166.57 ZM 332.83 163.75 C323.61,167.61 315.83,168.64 311.33,166.60 C307.26,164.75 306.00,162.31 306.00,156.22 C306.00,150.21 307.19,148.99 316.12,145.74 C334.50,139.07 345.93,126.44 349.63,108.69 C352.65,94.20 347.29,79.03 335.23,67.97 C328.07,61.40 323.90,58.89 315.14,55.88 C295.58,49.15 270.13,62.16 259.64,84.26 C255.88,92.20 253.73,94.34 248.40,95.45 C245.86,95.98 244.75,95.57 242.15,93.14 C239.20,90.38 239.00,89.76 239.00,83.20 C239.00,62.74 255.75,43.92 282.50,34.34 C289.30,31.90 307.33,31.46 315.50,33.52 C340.23,39.76 359.23,55.14 366.75,75.00 C370.73,85.53 371.40,89.23 371.39,100.86 C371.37,123.55 366.99,134.12 351.05,150.02 C341.79,159.25 339.56,160.92 332.83,163.75 ZM 88.50 384.92 C83.55,385.43 78.82,386.08 78.00,386.35 C77.18,386.63 75.60,386.47 74.50,386.00 C73.40,385.53 70.35,385.11 67.72,385.07 C62.06,384.99 52.76,382.03 44.72,377.76 C36.26,373.27 23.26,360.09 18.80,351.50 C12.36,339.06 8.77,321.73 10.27,310.24 C13.55,285.06 26.12,265.97 45.33,256.97 C63.09,248.64 76.00,251.11 76.00,262.84 C76.00,267.24 73.35,269.66 64.50,273.33 C49.30,279.65 41.33,286.35 35.80,297.50 C31.86,305.43 30.70,311.14 31.18,320.29 C32.00,335.83 41.36,350.59 54.69,357.34 C60.38,360.23 71.27,363.00 76.90,363.00 C81.98,363.00 94.82,359.64 100.17,356.92 C107.51,353.17 115.32,344.21 120.69,333.35 C126.12,322.36 127.88,321.08 134.92,322.98 C141.08,324.64 143.00,327.28 143.00,334.11 C143.00,343.88 136.74,355.35 124.93,367.23 C119.56,372.64 116.21,374.95 107.87,378.98 C98.96,383.30 96.23,384.13 88.50,384.92 ZM 314.50 385.06 C310.65,385.58 306.15,386.21 304.50,386.47 C302.85,386.73 300.60,386.53 299.50,386.04 C298.40,385.55 295.44,385.11 292.93,385.07 C287.81,384.99 277.20,381.66 269.25,377.63 C261.39,373.64 248.94,360.84 244.76,352.43 C240.99,344.85 238.41,334.49 239.35,330.72 C240.44,326.41 243.78,323.21 247.93,322.51 C253.86,321.51 256.13,323.58 260.42,333.93 C264.71,344.30 267.65,348.38 274.50,353.51 C287.55,363.28 304.18,365.65 319.16,359.88 C329.88,355.75 340.82,345.77 345.12,336.20 C350.84,323.51 350.98,307.74 345.48,297.01 C340.97,288.22 327.58,277.40 317.00,274.00 C308.37,271.23 306.00,268.66 306.00,262.09 C306.00,255.90 307.91,253.39 313.22,252.59 C324.83,250.86 339.32,257.34 352.09,269.99 C365.61,283.38 370.16,294.66 370.76,316.27 C371.08,327.80 370.86,329.87 368.46,337.77 C365.47,347.63 363.80,350.69 356.19,360.20 C344.56,374.73 330.92,382.86 314.50,385.06 ZM 1059.00 198.67 L 1059.00 201.03 L 1128.50 200.50 L 1128.35 195.91 C1128.06,186.93 1122.31,179.77 1111.05,174.39 C1103.04,170.56 1090.02,169.92 1081.17,172.93 C1073.18,175.64 1067.89,178.96 1064.50,183.42 C1061.72,187.05 1059.00,194.61 1059.00,198.67 Z" fill="rgb(1,1,1)"/>
<path d="M 330.70 166.46 C322.54,169.53 311.82,169.96 308.12,167.37 C305.23,165.35 303.00,160.19 303.00,155.55 C303.00,150.40 307.03,146.49 315.44,143.47 C329.05,138.57 338.10,131.13 342.91,120.88 C351.91,101.72 348.38,82.87 333.20,68.94 C319.91,56.75 306.90,53.30 291.86,57.98 C280.24,61.58 267.54,72.39 262.46,83.00 C257.95,92.40 257.25,93.39 253.83,95.28 C249.62,97.61 242.63,97.08 239.77,94.22 C235.35,89.79 235.77,75.38 240.61,65.72 C246.84,53.29 256.60,44.06 271.21,36.82 C282.66,31.15 287.60,30.03 301.23,30.01 C311.23,30.00 314.10,30.38 320.72,32.61 C342.12,39.79 353.99,48.78 363.91,65.30 C370.69,76.59 373.28,86.39 373.38,101.00 C373.51,121.59 367.59,136.52 353.63,150.79 C345.27,159.34 339.95,162.98 330.70,166.46 ZM 96.50 385.34 C88.98,387.23 75.36,388.05 67.50,387.08 C43.62,384.13 21.10,366.42 12.70,343.98 C8.83,333.63 7.71,327.44 7.73,316.50 C7.76,303.21 9.29,296.90 15.64,284.00 C21.50,272.08 31.68,261.40 42.55,255.76 C59.63,246.90 71.50,247.20 76.04,256.59 C79.78,264.30 76.83,270.56 67.88,273.92 C55.16,278.70 47.23,284.12 41.16,292.19 C35.02,300.36 32.71,308.43 33.21,320.00 C33.71,331.55 36.67,338.64 44.44,346.86 C53.35,356.30 65.39,360.70 79.64,359.74 C94.91,358.71 104.17,353.94 112.50,342.82 C115.25,339.15 118.34,333.78 119.36,330.89 C122.84,321.04 128.90,317.81 137.28,321.36 C143.10,323.82 144.50,326.36 144.49,334.35 C144.48,339.99 143.91,342.71 141.79,347.26 C138.51,354.30 131.31,363.89 124.55,370.24 C118.55,375.86 104.88,383.23 96.50,385.34 ZM 323.56 384.98 C316.05,387.13 300.91,388.14 292.50,387.05 C274.46,384.71 257.02,374.29 246.52,359.58 C240.17,350.69 237.79,344.03 237.63,334.78 C237.51,327.37 237.63,326.93 240.66,323.89 C245.07,319.46 252.30,318.68 256.11,322.22 C257.55,323.56 259.68,327.21 260.86,330.35 C265.89,343.79 269.93,348.91 280.13,354.72 C290.93,360.88 307.12,362.04 319.00,357.50 C330.83,352.98 339.31,344.56 344.00,332.69 C347.02,325.05 347.19,323.98 346.79,314.53 C346.27,301.81 344.04,296.41 336.20,288.82 C328.41,281.27 322.69,277.58 314.89,275.07 C305.76,272.12 303.49,269.49 303.54,261.91 C303.56,257.18 304.01,255.54 305.76,253.80 C308.67,250.89 317.14,248.72 320.56,250.02 C321.97,250.56 324.08,251.00 325.24,251.00 C326.40,251.00 331.20,252.91 335.92,255.25 C342.63,258.58 346.36,261.35 353.10,268.00 C362.78,277.56 367.42,285.65 370.97,299.23 C373.44,308.64 373.67,324.53 371.48,333.83 C369.34,342.90 364.07,353.64 358.67,359.94 C356.10,362.93 354.00,365.69 354.00,366.08 C354.00,367.42 341.50,376.99 335.73,380.06 C332.53,381.77 327.05,383.99 323.56,384.98 ZM 332.83 163.75 C339.56,160.92 341.79,159.25 351.05,150.02 C366.99,134.12 371.37,123.55 371.39,100.86 C371.40,89.23 370.73,85.53 366.75,75.00 C359.23,55.14 340.23,39.76 315.50,33.52 C307.33,31.46 289.30,31.90 282.50,34.34 C255.75,43.92 239.00,62.74 239.00,83.20 C239.00,89.76 239.20,90.38 242.15,93.14 C244.75,95.57 245.86,95.98 248.40,95.45 C253.73,94.34 255.88,92.20 259.64,84.26 C270.13,62.16 295.58,49.15 315.14,55.88 C323.90,58.89 328.07,61.40 335.23,67.97 C347.29,79.03 352.65,94.20 349.63,108.69 C345.93,126.44 334.50,139.07 316.12,145.74 C307.19,148.99 306.00,150.21 306.00,156.22 C306.00,162.31 307.26,164.75 311.33,166.60 C315.83,168.64 323.61,167.61 332.83,163.75 ZM 88.50 384.92 C96.23,384.13 98.96,383.30 107.87,378.98 C116.21,374.95 119.56,372.64 124.93,367.23 C136.74,355.35 143.00,343.88 143.00,334.11 C143.00,327.28 141.08,324.64 134.92,322.98 C127.88,321.08 126.12,322.36 120.69,333.35 C115.32,344.21 107.51,353.17 100.17,356.92 C94.82,359.64 81.98,363.00 76.90,363.00 C71.27,363.00 60.38,360.23 54.69,357.34 C41.36,350.59 32.00,335.83 31.18,320.29 C30.70,311.14 31.86,305.43 35.80,297.50 C41.33,286.35 49.30,279.65 64.50,273.33 C73.35,269.66 76.00,267.24 76.00,262.84 C76.00,251.11 63.09,248.64 45.33,256.97 C26.12,265.97 13.55,285.06 10.27,310.24 C8.77,321.73 12.36,339.06 18.80,351.50 C23.26,360.09 36.26,373.27 44.72,377.76 C52.76,382.03 62.06,384.99 67.72,385.07 C70.35,385.11 73.40,385.53 74.50,386.00 C75.60,386.47 77.18,386.63 78.00,386.35 C78.82,386.08 83.55,385.43 88.50,384.92 ZM 314.50 385.06 C330.92,382.86 344.56,374.73 356.19,360.20 C363.80,350.69 365.47,347.63 368.46,337.77 C370.86,329.87 371.08,327.80 370.76,316.27 C370.16,294.66 365.61,283.38 352.09,269.99 C339.32,257.34 324.83,250.86 313.22,252.59 C307.91,253.39 306.00,255.90 306.00,262.09 C306.00,268.66 308.37,271.23 317.00,274.00 C327.58,277.40 340.97,288.22 345.48,297.01 C350.98,307.74 350.84,323.51 345.12,336.20 C340.82,345.77 329.88,355.75 319.16,359.88 C304.18,365.65 287.55,363.28 274.50,353.51 C267.65,348.38 264.71,344.30 260.42,333.93 C256.13,323.58 253.86,321.51 247.93,322.51 C243.78,323.21 240.44,326.41 239.35,330.72 C238.41,334.49 240.99,344.85 244.76,352.43 C248.94,360.84 261.39,373.64 269.25,377.63 C277.20,381.66 287.81,384.99 292.93,385.07 C295.44,385.11 298.40,385.55 299.50,386.04 C300.60,386.53 302.85,386.73 304.50,386.47 C306.15,386.21 310.65,385.58 314.50,385.06 Z" fill="rgb(159,159,159)"/>
<path d="M 0.00 200.00 L 0.00 0.00 L 750.00 0.00 L 1500.00 0.00 L 1500.00 200.00 L 1500.00 400.00 L 750.00 400.00 L 0.00 400.00 L 0.00 200.00 ZM 96.50 385.34 C104.88,383.23 118.55,375.86 124.55,370.24 C131.31,363.89 138.51,354.30 141.79,347.26 C143.91,342.71 144.48,339.99 144.49,334.35 C144.50,326.36 143.10,323.82 137.28,321.36 C128.90,317.81 122.84,321.04 119.36,330.89 C118.34,333.78 115.25,339.15 112.50,342.82 C104.17,353.94 94.91,358.71 79.64,359.74 C65.39,360.70 53.35,356.30 44.44,346.86 C36.67,338.64 33.71,331.55 33.21,320.00 C32.71,308.43 35.02,300.36 41.16,292.19 C47.23,284.12 55.16,278.70 67.88,273.92 C76.83,270.56 79.78,264.30 76.04,256.59 C71.50,247.20 59.63,246.90 42.55,255.76 C31.68,261.40 21.50,272.08 15.64,284.00 C9.29,296.90 7.76,303.21 7.73,316.50 C7.71,327.44 8.83,333.63 12.70,343.98 C21.10,366.42 43.62,384.13 67.50,387.08 C75.36,388.05 88.98,387.23 96.50,385.34 ZM 323.56 384.98 C327.05,383.99 332.53,381.77 335.73,380.06 C341.50,376.99 354.00,367.42 354.00,366.08 C354.00,365.69 356.10,362.93 358.67,359.94 C364.07,353.64 369.34,342.90 371.48,333.83 C373.67,324.53 373.44,308.64 370.97,299.23 C367.42,285.65 362.78,277.56 353.10,268.00 C346.36,261.35 342.63,258.58 335.92,255.25 C331.20,252.91 326.40,251.00 325.24,251.00 C324.08,251.00 321.97,250.56 320.56,250.02 C317.14,248.72 308.67,250.89 305.76,253.80 C304.01,255.54 303.56,257.18 303.54,261.91 C303.49,269.49 305.76,272.12 314.89,275.07 C322.69,277.58 328.41,281.27 336.20,288.82 C344.04,296.41 346.27,301.81 346.79,314.53 C347.19,323.98 347.02,325.05 344.00,332.69 C339.31,344.56 330.83,352.98 319.00,357.50 C307.12,362.04 290.93,360.88 280.13,354.72 C269.93,348.91 265.89,343.79 260.86,330.35 C259.68,327.21 257.55,323.56 256.11,322.22 C252.30,318.68 245.07,319.46 240.66,323.89 C237.63,326.93 237.51,327.37 237.63,334.78 C237.79,344.03 240.17,350.69 246.52,359.58 C257.02,374.29 274.46,384.71 292.50,387.05 C300.91,388.14 316.05,387.13 323.56,384.98 ZM 806.49 378.47 C822.36,374.79 834.41,367.62 846.88,354.45 C860.39,340.17 865.93,328.92 869.46,308.62 C870.77,301.09 871.00,286.89 871.00,215.37 L 871.00 131.00 L 846.50 131.00 L 822.00 131.00 L 822.00 187.63 C822.00,252.54 822.89,246.40 812.01,256.25 C802.00,265.31 795.00,266.56 780.45,261.90 C773.24,259.60 766.25,253.13 763.00,245.76 C759.65,238.15 759.02,227.32 759.01,177.75 L 759.00 131.00 L 734.50 131.00 L 710.00 131.00 L 710.03 187.75 C710.07,252.94 710.25,254.95 717.34,269.42 C725.87,286.87 737.22,297.21 753.78,302.64 C761.89,305.30 763.58,305.50 778.00,305.46 C792.52,305.41 793.94,305.24 800.40,302.66 C804.19,301.14 810.39,297.90 814.18,295.45 C817.96,293.00 821.27,291.00 821.53,291.00 C822.49,291.00 821.89,303.75 820.58,311.05 C816.80,332.24 803.33,343.00 780.56,343.00 C769.89,343.00 758.96,338.85 744.17,329.19 C738.97,325.79 738.81,325.75 737.09,327.60 C729.89,335.38 717.00,350.93 717.00,351.85 C717.00,353.68 732.65,365.43 740.86,369.76 C748.59,373.83 760.86,378.41 768.39,380.04 C774.33,381.32 798.48,380.32 806.49,378.47 ZM 86.78 324.05 C89.69,322.45 93.52,319.95 95.28,318.50 C112.10,304.70 122.05,297.58 150.00,279.39 C155.81,275.61 166.04,271.47 174.36,269.54 C186.57,266.70 205.09,268.16 216.32,272.83 C217.86,273.47 219.45,274.00 219.84,274.00 C222.03,274.00 249.49,291.65 260.32,300.01 C263.52,302.48 267.63,305.62 269.45,307.00 C271.27,308.38 276.71,312.59 281.54,316.36 C293.09,325.38 295.85,326.99 299.80,327.00 C310.03,327.01 316.56,314.96 310.82,306.65 C308.38,303.12 302.98,296.94 293.13,286.40 C289.48,282.50 284.93,277.10 283.01,274.40 C281.08,271.71 277.25,267.02 274.49,264.00 C271.73,260.98 268.09,256.70 266.40,254.50 C262.44,249.34 253.73,233.52 251.44,227.32 C250.46,224.67 249.34,222.05 248.95,221.50 C248.56,220.95 248.00,218.93 247.70,217.00 C247.41,215.07 246.84,211.55 246.44,209.18 C245.20,201.76 249.52,187.27 256.63,175.00 C263.64,162.90 277.84,145.55 295.86,127.09 C308.07,114.57 311.00,110.07 311.00,103.76 C311.00,98.48 308.12,91.64 305.46,90.62 C304.57,90.28 301.68,90.00 299.05,90.00 C294.50,90.00 293.83,90.39 285.38,97.81 C277.43,104.82 249.48,125.02 235.00,134.24 C222.21,142.38 202.14,149.00 190.23,149.00 C180.32,149.00 159.94,143.41 150.80,138.19 C139.42,131.67 132.63,127.38 129.19,124.51 C127.16,122.82 124.19,120.54 122.59,119.46 C114.11,113.74 106.98,108.60 95.98,100.25 C84.17,91.29 83.62,91.00 78.51,91.00 C73.62,91.00 72.97,91.30 69.62,95.00 C66.57,98.37 66.00,99.73 66.00,103.57 C66.00,109.49 66.99,111.19 74.93,119.00 C84.72,128.62 107.59,153.90 110.67,158.50 C112.14,160.70 115.01,164.41 117.05,166.74 C121.85,172.26 128.70,185.88 130.51,193.50 C133.54,206.32 131.77,220.52 125.53,233.51 C118.87,247.34 101.89,269.55 78.12,295.50 L 68.04 306.50 L 68.02 313.60 C68.00,321.24 68.52,322.17 74.50,325.33 C78.74,327.58 80.78,327.36 86.78,324.05 ZM 480.76 251.76 L 481.02 197.02 L 529.76 196.76 L 578.50 196.50 L 578.77 172.25 L 579.04 148.00 L 530.02 148.00 L 481.00 148.00 L 481.00 120.01 L 481.00 92.01 L 547.25 91.76 L 613.50 91.50 L 613.77 66.75 L 614.03 42.00 L 521.02 42.00 L 428.00 42.00 L 428.00 173.83 C428.00,246.34 428.31,305.97 428.68,306.35 C429.06,306.73 440.87,306.91 454.93,306.77 L 480.50 306.50 L 480.76 251.76 ZM 677.75 174.23 L 678.01 41.96 L 653.75 42.23 L 629.50 42.50 L 629.24 173.50 C629.10,245.55 629.20,305.07 629.47,305.77 C629.84,306.75 635.25,306.98 653.73,306.77 L 677.50 306.50 L 677.75 174.23 ZM 938.00 251.46 L 938.50 196.42 L 942.00 190.60 C949.36,178.36 961.18,171.20 972.00,172.44 C979.94,173.35 984.23,174.67 988.40,177.49 C990.99,179.26 992.21,179.62 992.54,178.74 C992.80,178.06 994.58,167.40 996.50,155.05 C999.20,137.61 999.70,132.43 998.74,131.82 C998.06,131.38 991.81,131.02 984.86,131.02 C966.88,130.99 957.86,133.88 944.62,143.91 L 938.07 148.86 L 937.79 139.73 L 937.50 130.59 L 932.50 130.88 C929.75,131.04 918.95,132.15 908.50,133.36 L 889.50 135.56 L 889.24 220.03 C889.10,266.49 889.20,305.07 889.47,305.77 C889.84,306.75 895.25,306.98 913.73,306.77 L 937.50 306.50 L 938.00 251.46 ZM 1120.00 304.34 C1137.84,301.35 1152.99,294.03 1162.97,283.58 L 1166.44 279.95 L 1152.22 265.73 C1139.63,253.14 1137.80,251.66 1136.25,252.79 C1132.61,255.44 1116.30,262.80 1111.50,263.96 C1108.75,264.62 1102.63,265.41 1097.91,265.72 C1090.77,266.18 1088.17,265.91 1082.57,264.10 C1074.49,261.49 1069.50,258.47 1065.27,253.66 C1062.10,250.05 1058.92,243.82 1057.65,238.76 L 1056.97 236.02 L 1117.23 235.76 L 1177.50 235.50 L 1177.78 220.58 C1178.10,203.31 1176.50,192.63 1171.88,181.05 C1162.51,157.59 1145.39,141.63 1121.46,134.00 C1111.63,130.87 1085.96,130.03 1073.87,132.44 C1043.19,138.55 1020.75,158.18 1010.79,187.63 C1003.34,209.64 1005.19,239.36 1015.26,259.50 C1020.85,270.70 1033.08,285.14 1042.50,291.69 C1061.25,304.73 1089.83,309.40 1120.00,304.34 ZM 1248.00 250.00 C1248.54,188.92 1248.14,193.12 1254.26,184.16 C1257.56,179.32 1264.46,174.49 1270.33,172.91 C1275.46,171.53 1286.65,173.28 1292.82,176.43 C1300.03,180.10 1304.30,185.31 1307.63,194.50 C1309.27,199.02 1309.50,204.64 1309.97,253.00 L 1310.50 306.50 L 1334.50 306.50 L 1358.50 306.50 L 1358.80 250.00 C1359.12,189.89 1358.78,183.82 1354.43,172.24 C1348.86,157.40 1336.43,143.38 1323.59,137.45 C1312.84,132.48 1305.46,131.03 1290.83,131.01 C1279.38,131.00 1277.31,131.29 1269.41,133.98 C1264.59,135.61 1258.07,138.76 1254.92,140.98 C1251.76,143.19 1248.92,145.00 1248.59,145.00 C1248.27,145.00 1248.00,141.85 1248.00,138.00 L 1248.00 131.00 L 1243.75 130.98 C1239.62,130.97 1202.76,134.86 1200.25,135.58 C1199.26,135.86 1199.00,153.77 1199.00,220.80 C1199.00,267.48 1199.31,305.97 1199.68,306.35 C1200.06,306.73 1210.97,306.91 1223.93,306.77 L 1247.50 306.50 L 1248.00 250.00 ZM 1482.26 302.27 C1485.98,300.52 1489.31,298.36 1489.66,297.46 C1490.18,296.09 1481.73,264.40 1480.52,263.19 C1480.31,262.98 1477.83,263.30 1475.02,263.90 C1467.19,265.58 1462.86,265.23 1457.35,262.49 C1453.38,260.51 1451.68,258.85 1449.40,254.74 L 1446.50 249.50 L 1446.20 209.75 L 1445.89 170.00 L 1458.41 170.00 C1469.76,170.00 1471.03,169.82 1471.96,168.07 C1473.08,165.98 1473.41,139.29 1472.38,134.15 L 1471.76 131.06 L 1459.13 130.78 L 1446.50 130.50 L 1446.23 104.25 C1446.03,84.26 1445.67,78.00 1444.73,77.99 C1442.97,77.98 1404.13,81.99 1400.27,82.59 L 1397.04 83.08 L 1396.77 106.79 L 1396.50 130.50 L 1383.50 131.00 L 1370.50 131.50 L 1370.50 150.50 L 1370.50 169.50 L 1383.50 170.00 L 1396.50 170.50 L 1397.01 215.50 C1397.47,255.95 1397.70,261.01 1399.36,265.50 C1406.72,285.47 1420.95,298.57 1441.22,304.04 C1447.10,305.62 1451.09,305.95 1462.00,305.72 C1474.80,305.46 1475.85,305.28 1482.26,302.27 ZM 72.12 166.57 C74.63,165.51 77.37,158.60 76.56,155.37 C75.36,150.61 72.35,147.43 67.81,146.11 C65.44,145.43 59.79,143.06 55.25,140.85 C45.81,136.24 39.75,130.07 35.44,120.66 C30.69,110.28 30.32,94.54 34.59,84.00 C38.72,73.79 50.39,62.35 62.10,57.04 C65.60,55.45 68.68,55.04 77.19,55.02 C87.24,55.00 88.34,55.21 95.19,58.36 C105.76,63.21 117.21,75.59 121.09,86.36 C122.78,91.05 128.17,96.00 131.58,96.00 C135.50,96.00 139.59,93.40 140.99,90.02 C143.07,85.00 141.81,73.83 138.63,69.02 C137.19,66.83 136.00,64.63 136.00,64.13 C136.00,61.99 126.92,51.17 121.93,47.36 C116.22,43.01 101.52,35.00 99.24,35.00 C98.50,35.00 96.55,34.30 94.89,33.44 C90.38,31.11 64.75,31.04 60.30,33.34 C58.54,34.25 54.90,35.47 52.22,36.05 C46.15,37.35 36.65,43.48 27.87,51.76 C22.81,56.53 20.05,60.25 16.68,66.80 C10.12,79.58 8.66,86.83 9.27,103.67 C10.07,125.36 14.65,136.44 28.44,150.00 C37.72,159.12 38.86,160.01 45.96,163.57 C55.01,168.12 65.57,169.33 72.12,166.57 ZM 330.70 166.46 C339.95,162.98 345.27,159.34 353.63,150.79 C367.59,136.52 373.51,121.59 373.38,101.00 C373.28,86.39 370.69,76.59 363.91,65.30 C353.99,48.78 342.12,39.79 320.72,32.61 C314.10,30.38 311.23,30.00 301.23,30.01 C287.60,30.03 282.66,31.15 271.21,36.82 C256.60,44.06 246.84,53.29 240.61,65.72 C235.77,75.38 235.35,89.79 239.77,94.22 C242.63,97.08 249.62,97.61 253.83,95.28 C257.25,93.39 257.95,92.40 262.46,83.00 C267.54,72.39 280.24,61.58 291.86,57.98 C306.90,53.30 319.91,56.75 333.20,68.94 C348.38,82.87 351.91,101.72 342.91,120.88 C338.10,131.13 329.05,138.57 315.44,143.47 C307.03,146.49 303.00,150.40 303.00,155.55 C303.00,160.19 305.23,165.35 308.12,167.37 C311.82,169.96 322.54,169.53 330.70,166.46 ZM 1059.00 198.67 C1059.00,194.61 1061.72,187.05 1064.50,183.42 C1067.89,178.96 1073.18,175.64 1081.17,172.93 C1090.02,169.92 1103.04,170.56 1111.05,174.39 C1122.31,179.77 1128.06,186.93 1128.35,195.91 L 1128.50 200.50 L 1093.75 200.76 L 1059.00 201.03 L 1059.00 198.67 Z" fill="rgb(254,254,254)"/>
</g>
</svg>